<svg width="7" height="14" viewBox="0 0 7 14" fill="none" xmlns="http://www.w3.org/2000/svg">
<path d="M5.82992 14C5.68052 14.0005 5.53291 13.9676 5.39794 13.9035C5.26296 13.8395 5.14404 13.7461 5.04992 13.63L0.21992 7.63003C0.0728379 7.4511 -0.00756836 7.22666 -0.00756836 6.99503C-0.00756836 6.76341 0.0728379 6.53896 0.21992 6.36003L5.21992 0.360032C5.38966 0.155815 5.63357 0.0273905 5.898 0.0030108C6.16242 -0.0213689 6.4257 0.060293 6.62992 0.230032C6.83414 0.39977 6.96256 0.643682 6.98694 0.908108C7.01132 1.17253 6.92966 1.43581 6.75992 1.64003L2.28992 7.00003L6.60992 12.36C6.7322 12.5068 6.80988 12.6856 6.83376 12.8751C6.85764 13.0647 6.82672 13.2571 6.74467 13.4296C6.66261 13.6021 6.53285 13.7475 6.37074 13.8486C6.20863 13.9497 6.02095 14.0023 5.82992 14Z" fill="#151517"/>
</svg>
