<svg width="24" height="24" viewBox="0 0 24 24" fill="none" xmlns="http://www.w3.org/2000/svg">
<path d="M2.40002 14.3999C3.72551 14.3999 4.80003 13.3254 4.80003 11.9999C4.80003 10.6744 3.72551 9.59985 2.40002 9.59985C1.07452 9.59985 0 10.6744 0 11.9999C0 13.3254 1.07452 14.3999 2.40002 14.3999Z" fill="black"/>
<path d="M11.9999 14.3999C13.3254 14.3999 14.3999 13.3254 14.3999 11.9999C14.3999 10.6744 13.3254 9.59985 11.9999 9.59985C10.6744 9.59985 9.59985 10.6744 9.59985 11.9999C9.59985 13.3254 10.6744 14.3999 11.9999 14.3999Z" fill="black"/>
<path d="M21.6 14.3999C22.9255 14.3999 24 13.3254 24 11.9999C24 10.6744 22.9255 9.59985 21.6 9.59985C20.2745 9.59985 19.2 10.6744 19.2 11.9999C19.2 13.3254 20.2745 14.3999 21.6 14.3999Z" fill="black"/>
</svg>
